<?xml version="1.0" standalone="no"?>
<!DOCTYPE svg PUBLIC "-//W3C//DTD SVG 20010904//EN"
  "http://www.w3.org/TR/2001/REC-SVG-20010904/DTD/svg10.dtd">
<svg version="1.0" xmlns="http://www.w3.org/2000/svg"
  width="1220.000000pt" height="1280.000000pt" viewBox="0 0 1220.000000 1280.000000"
  preserveAspectRatio="xMidYMid meet">

<g transform="translate(0.000000,1280.000000) scale(0.100000,-0.100000)"
fill="#000000" stroke="none">
<path d="M7100 12759 c-123 -40 -746 -237 -1920 -609 -327 -104 -867 -275
-1200 -380 -958 -304 -2436 -772 -3388 -1073 -320 -101 -585 -187 -588 -190
-3 -3 24 -209 61 -458 36 -250 84 -578 106 -729 22 -151 58 -398 79 -547 51
-347 109 -747 160 -1100 23 -153 59 -401 80 -550 22 -150 58 -396 80 -545 22
-150 116 -802 210 -1448 93 -646 172 -1185 175 -1198 4 -17 38 -39 145 -92 77
-39 146 -70 154 -70 8 0 63 31 123 70 59 38 270 170 468 293 288 179 364 222
378 215 10 -5 17 -14 15 -20 -2 -6 -205 -135 -451 -287 l-447 -276 2 -228 3
-229 505 -306 c4013 -2428 4965 -3002 4971 -3000 5 2 1206 1197 2669 2657
1738 1734 2668 2668 2682 2694 29 58 35 172 14 278 -10 46 -23 89 -29 96 -7 6
-127 54 -267 106 -640 239 -914 341 -1030 387 -69 27 -242 93 -385 146 -143
53 -356 131 -472 175 -117 43 -309 115 -425 158 -117 44 -330 123 -473 176
-143 53 -393 146 -555 207 -162 60 -487 181 -722 269 -236 88 -434 157 -440
153 -7 -4 -129 -78 -270 -166 -271 -167 -293 -179 -286 -158 2 7 127 88 278
180 l275 168 6 249 c4 136 10 1306 13 2600 l8 2351 -22 22 c-30 30 -82 50
-127 50 -21 -1 -94 -19 -163 -41z m242 -10 c10 -5 18 -13 18 -17 0 -4 -55 -24
-123 -45 -67 -21 -219 -69 -337 -107 -118 -38 -359 -114 -535 -170 -176 -56
-417 -132 -535 -170 -201 -64 -388 -123 -1170 -372 -173 -55 -412 -130 -530
-168 -118 -38 -359 -114 -535 -170 -176 -56 -417 -132 -535 -170 -201 -64
-388 -123 -1170 -372 -173 -55 -412 -130 -530 -168 -118 -38 -359 -114 -535
-170 -176 -56 -375 -119 -443 -141 -92 -30 -127 -37 -137 -29 -7 6 -29 19 -49
28 l-36 18 462 146 c255 81 734 232 1066 337 331 105 872 277 1202 381 330
105 870 276 1200 380 330 105 870 276 1200 380 330 105 871 276 1203 381 622
197 708 224 742 232 25 6 84 -2 107 -14z m33 -1386 c-3 -731 -8 -1887 -11
-2570 l-6 -1243 -280 -170 c-218 -133 -284 -169 -302 -164 -34 8 -4611 -2797
-4611 -2826 0 -15 -89 -75 -375 -253 -206 -128 -407 -254 -447 -279 l-72 -47
-15 67 c-70 310 -295 1757 -597 3847 -221 1533 -388 2709 -384 2713 2 2 129
44 282 92 153 49 422 134 598 190 176 56 417 132 535 170 118 37 358 114 533
169 174 56 460 146 635 202 309 98 525 167 970 308 119 38 404 128 632 201
228 73 512 163 630 200 619 197 856 272 1610 512 173 55 389 124 480 153 91
29 173 54 182 54 17 1 18 -69 13 -1326z m-7168 -899 l28 -21 92 -639 c50 -351
123 -859 162 -1129 39 -269 104 -726 146 -1015 252 -1753 494 -3319 573 -3711
l27 -137 -123 62 c-86 43 -124 67 -127 81 -3 11 -18 117 -35 235 -17 118 -62
431 -101 695 -38 264 -74 509 -79 545 -5 36 -41 283 -80 550 -39 267 -75 514
-80 550 -5 36 -38 265 -74 510 -414 2845 -497 3424 -492 3437 9 23 127 14 163
-13z m7387 -3061 l180 -67 -25 -18 c-13 -10 -546 -355 -1184 -767 -1281 -827
-1339 -865 -2572 -1663 -474 -307 -865 -558 -867 -558 -3 0 -157 -100 -343
-221 -454 -298 -919 -598 -936 -605 -13 -5 -447 243 -447 255 1 3 195 126 433
273 l432 266 14 -34 c9 -23 19 -33 28 -30 7 3 1042 639 2299 1413 l2285 1408
-7 30 c-3 17 -7 38 -8 47 -1 13 73 63 259 178 142 88 264 160 269 160 6 0 91
-30 190 -67z m378 -147 c32 -11 58 -23 57 -26 0 -3 -282 -191 -626 -418 l-626
-414 -32 35 c-38 41 -82 66 -135 75 -39 7 -39 7 583 409 l621 401 50 -20 c28
-11 77 -30 108 -42z m209 -72 l98 -37 -272 -164 c-641 -388 -1057 -668 -1421
-959 -187 -149 -303 -253 -616 -549 -271 -257 -374 -350 -530 -476 -532 -433
-1375 -966 -2662 -1683 -174 -97 -319 -176 -322 -176 -4 0 -69 37 -147 82
-111 65 -137 84 -127 94 7 6 278 186 603 400 324 214 847 560 1162 769 316
209 748 495 961 635 213 140 682 450 1042 689 360 239 963 639 1340 888 377
250 708 470 735 488 28 19 52 34 54 34 2 1 48 -15 102 -35z m-1341 -68 c7 -14
10 -31 8 -38 -3 -7 -432 -276 -954 -598 -522 -321 -1536 -946 -2254 -1388
-718 -443 -1310 -806 -1315 -808 -6 -3 -18 10 -28 28 -10 18 -34 45 -53 59
l-35 27 253 155 c139 85 1164 713 2277 1396 l2024 1240 32 -24 c17 -14 37 -36
45 -49z m1682 -62 c111 -42 264 -98 338 -126 167 -62 1171 -436 1753 -654 137
-51 252 -96 255 -99 4 -4 7 -118 6 -253 -1 -273 -16 -400 -74 -639 -169 -686
-614 -1333 -1327 -1928 -905 -756 -2243 -1405 -3832 -1861 -123 -35 -231 -64
-241 -64 -19 0 -377 209 -1885 1098 -550 325 -999 594 -997 599 2 4 62 41 135
81 1492 830 2307 1347 2882 1826 77 65 232 204 344 309 383 361 436 410 541
501 378 328 868 666 1625 1123 149 89 271 163 272 163 1 0 93 -34 205 -76z
m-1887 -585 c36 -10 105 -66 105 -86 0 -5 -81 -62 -181 -127 l-180 -119 -32
31 c-38 36 -111 71 -149 72 -16 0 -28 3 -27 8 0 4 77 57 172 119 185 120 203
126 292 102z m-385 -280 c25 -11 57 -32 72 -46 l28 -27 -177 -117 -176 -117
-32 33 c-36 39 -112 75 -158 75 -19 0 -27 4 -21 9 5 6 79 55 164 110 144 93
159 100 205 101 29 0 69 -9 95 -21z m5242 -243 c315 -117 583 -217 596 -220
12 -4 22 -11 22 -15 0 -6 -4551 -4440 -5141 -5009 l-127 -123 -701 408 c-385
224 -701 411 -701 414 0 3 24 11 53 18 93 21 517 148 732 219 1595 529 2842
1225 3636 2029 179 182 219 224 318 347 315 388 544 826 646 1235 64 255 85
434 85 708 0 112 2 203 5 203 3 0 263 -96 577 -214z m-5594 -23 c42 -26 72
-58 62 -65 -52 -36 -391 -258 -395 -258 -2 0 -23 19 -45 43 -37 41 -55 50
-147 76 -19 5 7 26 160 124 l182 117 69 -4 c53 -4 80 -12 114 -33z m-463 -262
c44 -20 101 -79 88 -91 -4 -5 -109 -74 -232 -155 -202 -132 -225 -145 -234
-128 -24 42 -80 83 -139 101 l-62 18 214 137 c209 135 214 137 269 137 33 0
73 -8 96 -19z m6725 -79 c12 -87 7 -155 -16 -210 -9 -22 -759 -777 -2156
-2170 -3083 -3073 -3080 -3070 -3069 -3039 18 46 24 178 12 242 -6 33 -22 81
-34 107 l-24 47 2631 2560 c1447 1408 2634 2557 2638 2553 4 -4 12 -44 18 -90z
m-7232 -234 c42 -13 102 -64 102 -88 0 -12 -71 -65 -221 -164 l-222 -146 -36
39 c-34 37 -128 91 -158 91 -7 0 -13 3 -13 8 0 5 331 224 389 257 42 24 89 24
159 3z m-511 -311 c37 -14 127 -76 120 -83 -2 -3 -51 18 -107 46 -76 37 -96
50 -74 49 16 0 43 -6 61 -12z m-9 -64 c67 -31 119 -60 115 -64 -13 -12 -1084
-720 -1097 -724 -6 -3 -23 13 -38 35 -31 44 -82 80 -146 101 l-43 14 538 348
c295 191 540 347 543 347 3 0 60 -25 128 -57z m-1128 -703 c32 -16 110 -91
110 -105 0 -3 -122 -86 -272 -185 -186 -122 -274 -175 -279 -167 -37 63 -115
128 -173 143 -14 3 -26 9 -26 13 0 3 114 79 253 169 l252 163 49 -6 c27 -3 65
-15 86 -25z m-582 -366 c45 -22 118 -91 108 -101 -2 -2 -52 26 -112 62 -93 55
-105 65 -78 65 16 0 53 -12 82 -26z m-27 -65 c65 -39 119 -73 119 -75 0 -8
-623 -417 -640 -421 -18 -4 -252 128 -250 142 1 10 627 423 643 424 4 1 62
-31 128 -70z m544 -1187 c990 -578 2212 -1291 2715 -1584 l915 -535 24 -74
c20 -59 25 -95 25 -179 0 -94 -3 -111 -27 -161 -15 -32 -34 -62 -41 -68 -11
-9 -576 328 -2728 1630 -1492 902 -2715 1643 -2717 1645 -2 2 -6 94 -9 205
l-5 201 24 -15 c13 -8 834 -487 1824 -1065z"/>
<path d="M6995 12205 c-154 -51 -584 -193 -955 -315 -371 -122 -823 -270
-1005 -330 -181 -60 -496 -163 -700 -230 -203 -67 -518 -171 -700 -230 -181
-60 -483 -159 -670 -220 -412 -136 -956 -314 -1400 -460 -690 -227 -1002 -329
-1050 -345 -83 -26 -80 -16 -56 -166 11 -74 65 -438 120 -809 55 -371 164
-1100 241 -1620 77 -520 197 -1323 265 -1785 69 -462 145 -972 169 -1133 23
-161 46 -296 50 -299 4 -4 15 -2 24 3 9 6 1342 811 2962 1789 1620 978 2952
1784 2961 1792 14 12 17 94 23 746 4 402 11 1076 16 1497 5 421 12 1090 16
1488 7 707 7 722 -12 721 -10 0 -145 -43 -299 -94z m281 -422 c-3 -263 -11
-903 -16 -1423 -24 -2223 -29 -2483 -42 -2495 -15 -14 -5859 -3542 -5880
-3550 -11 -5 -22 49 -56 277 -23 156 -114 769 -202 1363 -88 594 -214 1442
-280 1885 -66 443 -165 1108 -220 1479 -55 371 -100 683 -100 692 0 14 38 30
183 77 384 126 1547 508 1862 612 182 60 483 159 670 220 187 62 502 165 700
230 198 65 513 169 700 230 1081 355 2361 776 2565 844 58 19 109 35 114 35 5
1 6 -203 2 -476z"/>
<path d="M8285 6718 c-35 -20 -548 -380 -593 -416 -30 -24 -42 -40 -39 -53 4
-15 0 -17 -22 -13 -21 4 -47 -8 -120 -56 -157 -103 -203 -140 -198 -159 3 -14
-1 -16 -22 -13 -20 3 -53 -16 -141 -77 -122 -86 -138 -104 -120 -126 9 -11 4
-12 -27 -8 -35 4 -48 -3 -166 -87 -71 -50 -131 -99 -134 -107 -4 -10 3 -24 18
-36 19 -16 20 -19 4 -12 -61 25 -76 20 -207 -72 -128 -88 -146 -106 -129 -127
7 -8 -2 -11 -30 -11 -32 0 -59 -14 -163 -85 -69 -47 -127 -91 -131 -99 -3 -7
0 -19 6 -27 8 -10 4 -12 -23 -8 -29 4 -47 -5 -148 -75 -119 -84 -138 -104
-121 -124 7 -9 1 -12 -27 -9 -33 3 -53 -8 -175 -94 -116 -81 -138 -100 -135
-118 4 -19 1 -21 -23 -18 -22 3 -54 -14 -159 -88 -72 -51 -134 -99 -137 -106
-3 -8 0 -21 7 -29 10 -12 7 -13 -20 -5 -28 8 -39 3 -128 -57 -166 -113 -202
-142 -202 -163 0 -15 21 -30 80 -60 44 -22 80 -42 80 -45 0 -3 -40 15 -90 40
-49 25 -99 45 -111 45 -20 0 -253 -157 -276 -187 -9 -11 -9 -21 -2 -34 9 -17
7 -18 -16 -9 -13 5 -33 6 -42 3 -23 -9 -242 -160 -267 -184 -20 -18 -20 -19 0
-40 19 -22 19 -22 -3 -10 -12 6 -31 11 -42 11 -19 0 -292 -188 -306 -211 -4
-5 -2 -15 4 -22 8 -10 3 -12 -22 -9 -28 3 -56 -13 -205 -119 -132 -93 -172
-127 -172 -144 0 -17 30 -38 154 -109 85 -48 164 -90 176 -93 13 -3 36 5 63
22 41 27 41 27 20 3 -44 -47 -35 -57 138 -156 112 -64 171 -92 194 -92 26 0
74 32 258 170 124 93 231 178 236 188 7 14 7 24 -2 34 -20 25 -315 178 -343
178 -31 0 -49 -9 -138 -73 -39 -28 -65 -43 -57 -34 7 9 11 26 8 36 -4 17 -1
19 22 15 27 -6 56 13 289 186 24 18 32 30 28 45 -5 19 -2 21 24 17 17 -2 37 1
45 8 8 7 15 10 15 7 0 -2 -43 -37 -96 -76 -98 -75 -114 -93 -98 -118 16 -26
316 -183 350 -183 23 0 55 18 120 66 49 37 83 61 77 53 -18 -18 -16 -43 5 -61
25 -23 323 -184 352 -191 34 -8 57 5 181 103 112 89 127 106 110 123 -18 18
-13 22 34 22 25 0 45 -1 45 -1 0 -1 -47 -40 -105 -88 -58 -47 -105 -92 -105
-99 0 -7 6 -19 13 -26 10 -10 7 -11 -13 -6 -16 4 -40 -2 -70 -17 -38 -20 -495
-365 -628 -475 -44 -35 -63 -68 -55 -90 8 -19 308 -183 336 -183 33 0 103 50
322 228 97 79 167 130 154 113 -21 -28 -21 -31 -6 -54 16 -25 16 -25 -12 -14
-15 5 -38 7 -52 3 -24 -6 -337 -257 -352 -281 -4 -7 -4 -20 -1 -29 8 -21 368
-226 397 -226 25 0 353 268 364 297 4 9 2 23 -4 32 -9 14 -5 16 26 13 33 -3
47 5 164 103 70 58 130 112 133 120 3 7 0 23 -6 35 -11 20 -10 21 12 14 50
-16 42 -21 241 146 75 63 92 91 67 116 -6 6 7 8 34 6 41 -4 46 0 157 93 63 53
118 106 123 116 7 15 3 26 -15 45 l-24 27 32 -17 c46 -23 104 -21 139 6 16 13
392 328 837 701 845 711 834 700 789 740 -22 20 -284 145 -309 147 -47 5 -70
-7 -197 -110 -109 -88 -135 -105 -133 -87 2 19 -14 30 -118 81 -184 90 -207
97 -239 81 -14 -8 -26 -13 -26 -11 0 2 28 24 63 51 34 26 54 39 44 27 -35 -38
-19 -52 137 -124 82 -37 160 -68 172 -68 28 0 234 167 234 190 0 9 -5 21 -10
26 -7 7 -1 9 20 6 18 -3 41 3 58 13 l27 18 -19 -21 c-10 -12 -16 -28 -13 -36
7 -18 318 -176 346 -176 11 0 76 48 146 106 98 82 126 111 122 125 -4 15 0 19
23 19 21 0 59 24 142 92 126 102 130 106 122 131 -4 13 1 17 23 17 34 0 51 11
166 108 49 41 87 81 87 91 0 28 -25 44 -169 110 -128 58 -183 73 -196 51 -11
-18 -21 -10 -20 18 0 24 -9 32 -80 69 -102 54 -90 56 15 3 44 -22 90 -40 104
-40 28 0 56 21 416 312 215 175 276 229 278 249 3 24 -5 28 -128 77 -141 56
-164 60 -197 37 -21 -15 -22 -14 -20 12 3 36 -15 45 -363 180 -215 84 -286
107 -325 107 -49 1 -54 -2 -245 -143 -233 -172 -248 -185 -235 -207 6 -9 77
-43 159 -76 l148 -59 47 31 c26 16 51 30 56 30 5 0 89 -34 187 -76 133 -57
187 -75 210 -72 l31 5 -34 -28 c-37 -31 -51 -36 -43 -16 2 7 -3 20 -13 29 -23
19 -307 138 -331 138 -28 0 -186 -111 -197 -139 -3 -8 2 -22 10 -31 15 -17 13
-17 -27 -13 -38 4 -50 0 -98 -34 l-55 -39 0 26 c0 22 4 25 25 22 26 -4 89 37
158 101 55 52 53 54 -138 131 -63 25 -126 46 -141 46 -39 0 -182 -107 -176
-131 4 -16 -1 -19 -27 -19 -23 0 -55 -17 -121 -66 -76 -56 -90 -71 -90 -94 0
-26 -3 -28 -30 -23 -25 4 -46 -5 -115 -52 -47 -32 -95 -67 -107 -78 -46 -41
-34 -53 123 -129 159 -76 171 -78 232 -32 17 13 49 36 70 50 l37 26 -33 -28
c-33 -30 -40 -52 -21 -71 8 -8 1 -10 -27 -6 -33 4 -47 -1 -90 -30 -47 -32 -51
-33 -47 -13 6 30 -13 43 -164 115 -157 75 -146 76 -293 -31 -102 -73 -117 -96
-87 -127 10 -11 8 -11 -12 -1 -13 6 -36 10 -52 8 -16 -3 -29 -3 -29 -2 0 1 47
37 105 80 106 78 124 102 88 123 -24 14 -7 14 19 0 31 -17 57 -5 172 77 110
78 133 103 114 122 -7 7 1 9 28 6 37 -5 48 1 177 97 103 76 137 106 134 119
-3 13 2 18 20 18 30 0 85 38 408 280 168 126 251 194 253 208 3 18 -14 27
-131 72 -140 55 -159 59 -192 40z m178 -70 c59 -22 107 -44 107 -47 -1 -5
-122 -97 -479 -358 -69 -51 -133 -93 -141 -93 -18 0 -260 102 -260 110 0 6
561 398 604 422 17 10 38 15 46 12 8 -2 63 -23 123 -46z m517 -200 c352 -136
345 -133 345 -145 0 -11 -272 -230 -313 -252 -26 -14 -56 -4 -245 79 -76 33
-149 60 -163 60 -13 0 -42 -12 -65 -27 l-40 -26 -134 53 c-74 29 -135 56 -134
59 0 9 378 285 408 298 14 6 40 9 56 5 17 -3 145 -50 285 -104z m573 -225 c64
-26 116 -51 114 -57 -5 -14 -593 -492 -631 -513 -29 -15 -32 -14 -148 43 -65
32 -118 61 -118 65 0 4 122 103 272 220 307 241 369 288 383 289 5 0 63 -21
128 -47z m-1793 -73 c69 -29 126 -54 128 -55 4 -4 -246 -185 -256 -185 -8 0
-257 106 -274 116 -11 7 254 186 267 180 5 -2 66 -27 135 -56z m530 -22 c72
-28 129 -55 128 -59 -8 -19 -124 -99 -146 -99 -26 0 -261 101 -262 112 0 10
123 97 137 98 7 0 71 -23 143 -52z m488 -86 c73 -30 135 -58 137 -62 7 -11
-138 -120 -159 -120 -19 0 -285 115 -299 129 -4 4 27 33 69 65 57 41 83 55 98
50 12 -3 81 -31 154 -62z m-691 -68 c68 -31 123 -60 123 -64 0 -4 -37 -35 -81
-69 -62 -47 -87 -60 -103 -55 -31 9 -250 105 -259 114 -11 9 153 129 177 130
11 0 75 -25 143 -56z m-660 -55 c54 -23 106 -46 116 -51 15 -8 2 -21 -85 -84
-57 -40 -113 -74 -125 -74 -26 0 -258 101 -262 113 -2 9 31 34 144 112 55 37
69 43 90 35 13 -5 68 -28 122 -51z m1119 -50 c79 -33 144 -64 144 -69 0 -12
-160 -130 -176 -130 -20 0 -314 123 -314 131 0 13 164 129 182 129 11 0 84
-27 164 -61z m-717 -75 c69 -31 130 -60 134 -64 12 -11 -171 -140 -198 -140
-33 0 -280 119 -269 129 22 20 188 131 197 131 5 0 66 -25 136 -56z m337 20
c-4 -9 0 -24 8 -33 13 -15 10 -16 -32 -12 l-46 3 35 29 c40 33 43 35 35 13z
m595 -13 c-33 -31 -38 -50 -19 -69 8 -8 3 -10 -25 -5 -25 4 -44 0 -62 -11 -44
-29 -27 -9 26 30 41 30 50 41 46 60 -4 22 -1 24 30 24 l35 0 -31 -29z m-1632
-88 c72 -32 131 -61 131 -64 0 -15 -227 -169 -248 -169 -30 0 -273 110 -266
121 7 12 236 169 245 169 4 0 67 -26 138 -57z m-9 47 c8 -5 11 -10 5 -10 -5 0
-17 5 -25 10 -8 5 -10 10 -5 10 6 0 17 -5 25 -10z m922 -4 c21 0 36 -1 35 -1
-1 -1 -20 -15 -43 -33 l-41 -31 5 26 c3 18 -1 31 -14 41 -18 14 -18 14 1 6 11
-4 37 -8 57 -8z m259 -78 c82 -34 149 -64 148 -67 0 -9 -175 -140 -202 -152
-21 -9 -47 -1 -181 56 -86 37 -156 69 -156 71 0 12 205 154 221 154 11 0 87
-28 170 -62z m-1096 42 c3 -6 -1 -7 -9 -4 -18 7 -21 14 -7 14 6 0 13 -4 16
-10z m1600 -20 c3 -6 -1 -7 -9 -4 -18 7 -21 14 -7 14 6 0 13 -4 16 -10z m26
-57 c66 -31 118 -60 117 -65 -5 -15 -202 -168 -224 -174 -26 -7 -271 113 -258
126 36 34 220 170 231 170 8 0 68 -25 134 -57z m-281 -4 c-88 -70 -120 -102
-120 -119 0 -15 30 -35 130 -85 71 -36 143 -65 159 -65 17 0 43 11 63 27 l33
27 -23 -26 c-24 -27 -24 -68 0 -68 6 0 9 -2 6 -5 -2 -3 -19 0 -37 6 -25 9 -36
8 -56 -5 -31 -21 -31 -21 -30 12 0 25 -10 32 -120 89 -160 82 -168 82 -283 -6
-68 -52 -88 -63 -80 -46 8 18 8 28 -1 39 -10 12 -6 13 26 9 35 -5 46 1 146 78
60 45 111 89 115 97 3 8 0 23 -6 33 -10 16 -8 17 22 12 19 -3 42 0 52 6 30 17
31 12 4 -10z m-982 -48 c68 -33 126 -61 128 -64 3 -3 -39 -39 -93 -81 -70 -54
-106 -76 -127 -76 -39 0 -281 129 -268 142 37 37 191 137 212 137 14 0 80 -26
148 -58z m-778 -56 c14 -8 21 -14 15 -14 -5 0 -21 6 -35 14 -14 8 -20 14 -15
14 6 0 21 -6 35 -14z m18 -52 c72 -31 132 -59 132 -63 0 -12 -226 -170 -242
-170 -15 0 -257 106 -270 119 -7 6 219 170 237 171 6 0 70 -25 143 -57z m2379
-9 c79 -37 143 -70 142 -73 -1 -13 -202 -171 -217 -171 -28 0 -302 122 -301
134 0 16 202 176 222 176 6 0 75 -30 154 -66z m-1168 -14 c75 -32 137 -62 138
-67 5 -15 -182 -153 -207 -153 -21 0 -320 128 -320 136 0 2 46 38 102 80 84
62 106 74 127 69 14 -4 86 -33 160 -65z m510 -57 c67 -31 121 -59 121 -63 0
-8 -168 -143 -198 -159 -20 -11 -38 -5 -149 46 -69 32 -126 62 -126 68 -1 14
195 165 214 165 10 0 71 -25 138 -57z m-1482 42 c-1 -1 -18 -12 -37 -27 l-35
-25 0 26 c0 24 4 26 37 26 20 0 36 0 35 0z m223 -60 c72 -36 130 -69 130 -74
0 -18 -183 -151 -207 -151 -27 0 -283 126 -283 139 0 11 200 151 217 151 7 0
72 -29 143 -65z m335 -2 c0 -25 9 -32 95 -75 52 -26 92 -47 89 -47 -4 -1 -53
20 -110 45 -77 34 -111 44 -132 40 -28 -6 -28 -4 14 28 24 19 44 35 44 35 1 1
1 -11 0 -26z m-118 -50 c30 6 29 4 -89 -87 -92 -70 -106 -94 -70 -123 16 -14
16 -14 -3 -7 -56 20 -79 16 -138 -25 -48 -34 -54 -36 -41 -16 12 18 13 29 6
38 -6 6 -78 46 -161 87 -139 69 -153 74 -181 63 -16 -6 -30 -10 -30 -8 0 2 22
19 49 39 l50 35 -2 -27 c-2 -25 9 -32 138 -102 98 -52 151 -74 175 -74 29 -1
55 15 143 83 105 81 121 102 95 130 -11 11 -9 11 11 1 13 -6 34 -10 48 -7z
m664 -9 c-29 -36 -17 -53 68 -93 39 -19 69 -36 67 -38 -1 -2 -43 15 -92 38
-78 36 -93 40 -118 30 -34 -12 -30 -8 39 48 59 48 63 49 36 15z m-1657 -63
c70 -32 130 -61 133 -64 5 -6 -187 -152 -222 -169 -17 -7 -48 3 -155 52 -74
34 -138 65 -142 68 -7 8 229 172 248 172 6 0 69 -27 138 -59z m1232 -10 c129
-57 164 -75 153 -85 -62 -55 -206 -156 -222 -156 -24 0 -310 134 -314 147 -4
16 192 152 219 153 15 0 89 -27 164 -59z m1176 -13 c81 -35 148 -65 148 -68 0
-9 -217 -180 -228 -180 -5 0 -50 19 -99 41 -48 23 -117 54 -151 70 l-64 29
104 84 c56 47 112 85 123 85 11 1 86 -27 167 -61z m-2132 8 c0 -4 -46 -38
-140 -104 l-35 -24 38 32 c20 17 37 41 37 51 0 14 7 19 28 19 16 0 37 7 48 15
21 16 24 17 24 11z m1080 -6 c8 -5 11 -10 5 -10 -5 0 -17 5 -25 10 -8 5 -10
10 -5 10 6 0 17 -5 25 -10z m190 6 c0 -2 -37 -32 -82 -67 -46 -34 -73 -51 -60
-37 26 29 27 36 7 58 -14 16 -12 17 32 13 39 -4 53 -1 73 16 26 21 30 24 30
17z m-1048 -82 c111 -56 129 -68 117 -79 -38 -37 -187 -135 -206 -135 -27 0
-298 128 -290 137 4 3 48 37 99 74 61 45 103 68 121 69 15 0 86 -30 159 -66z
m1251 10 c70 -32 127 -60 126 -63 -1 -13 -213 -171 -228 -170 -9 0 -74 28
-146 63 l-130 62 105 82 c58 44 114 81 125 82 11 0 77 -25 148 -56z m252 -14
c-9 -10 -15 -28 -13 -38 4 -15 1 -18 -18 -14 -13 2 -36 -3 -50 -13 -25 -16
-25 -16 -15 4 8 15 7 23 -4 34 -13 13 -10 14 23 10 28 -4 43 0 62 16 32 26 38
27 15 1z m-130 0 c3 -6 -1 -7 -9 -4 -18 7 -21 14 -7 14 6 0 13 -4 16 -10z
m-1780 -72 c0 -32 -1 -33 -42 -33 -23 0 -40 1 -39 2 1 1 20 15 41 32 22 16 40
30 40 30 0 1 0 -14 0 -31z m1267 10 c-15 -15 -16 -55 -1 -60 6 -2 -10 -3 -36
-3 l-46 0 43 37 c41 36 65 51 40 26z m-1628 -82 c57 -27 96 -50 90 -55 -38
-35 -218 -161 -231 -161 -14 0 -249 123 -266 139 -7 7 36 40 176 134 l38 26
47 -18 c26 -11 92 -40 146 -65z m1209 13 c73 -34 138 -67 145 -74 11 -10 -5
-27 -90 -94 -56 -45 -112 -84 -124 -87 -23 -6 -334 138 -334 155 0 5 48 44
107 85 74 53 116 76 136 76 16 0 88 -27 160 -61z m1174 -21 c84 -39 153 -74
152 -77 0 -6 -203 -172 -222 -182 -10 -5 -294 125 -312 143 -6 5 212 188 224
188 3 0 74 -32 158 -72z m-1152 52 c3 -6 -1 -7 -9 -4 -18 7 -21 14 -7 14 6 0
13 -4 16 -10z m-335 -14 c0 -2 -8 -10 -17 -17 -16 -13 -17 -12 -4 4 13 16 21
21 21 13z m-411 -92 c83 -40 131 -68 125 -74 -40 -40 -202 -150 -221 -150 -24
0 -277 122 -287 139 -4 5 42 44 100 85 81 58 112 75 128 70 12 -3 81 -35 155
-70z m1239 -6 c73 -34 131 -65 130 -70 -5 -12 -181 -158 -192 -158 -15 0 -285
124 -286 132 0 10 190 158 203 158 7 0 72 -27 145 -62z m-1541 37 c2 -1 -11
-12 -29 -25 -26 -19 -30 -20 -24 -5 3 10 1 24 -5 31 -9 12 -6 13 22 8 19 -4
35 -8 36 -9z m643 11 c0 -2 -8 -10 -17 -17 -16 -13 -17 -12 -4 4 13 16 21 21
21 13z m625 -35 c-16 -14 -37 -31 -46 -38 -14 -12 -16 -11 -12 12 3 14 1 31
-5 38 -8 9 1 12 42 12 l52 0 -31 -24z m-675 -11 c-7 -14 -8 -26 -1 -39 10 -18
8 -19 -30 -14 -31 5 -47 1 -69 -16 -36 -26 -39 -26 -33 0 4 15 0 27 -13 37
-18 14 -18 14 1 6 38 -15 83 -8 117 19 40 32 41 32 28 7z m-704 -72 c-1 -33 1
-34 139 -105 153 -79 187 -86 241 -52 28 17 33 18 28 4 -4 -9 2 -25 12 -37 19
-21 19 -21 -3 -9 -34 18 -57 13 -102 -20 -30 -21 -39 -25 -33 -12 5 10 7 24 5
31 -5 13 -267 149 -313 162 -14 4 -36 3 -50 -1 l-25 -9 25 18 c13 9 36 27 50
39 14 12 26 23 26 23 1 0 1 -15 0 -32z m-409 -60 c73 -39 130 -74 126 -78 -10
-9 -234 -165 -251 -174 -13 -8 -284 133 -280 145 5 13 243 178 257 179 8 0 74
-32 148 -72z m1244 -25 c88 -42 158 -80 157 -84 -5 -14 -200 -159 -214 -159
-8 0 -87 36 -176 81 -136 68 -159 83 -147 94 40 39 186 144 202 144 10 1 90
-34 178 -76z m1204 -45 c80 -40 145 -76 145 -80 0 -9 22 10 -914 -777 -608
-510 -745 -621 -769 -621 -40 0 -339 169 -335 190 2 8 379 317 838 687 642
517 841 672 862 673 15 0 93 -33 173 -72z m-1925 -8 c77 -39 140 -72 140 -74
0 -13 -253 -186 -271 -186 -24 0 -315 137 -308 145 33 32 260 184 277 184 12
1 85 -31 162 -69z m1261 -11 c74 -33 137 -64 141 -67 6 -6 -168 -152 -208
-175 -16 -9 -310 131 -298 142 42 38 209 161 219 161 7 0 72 -27 146 -61z
m-1582 20 c-31 -24 -36 -24 -41 4 -4 21 -1 22 30 19 l35 -5 -24 -18z m1278
-31 c-33 -28 -53 -36 -42 -17 4 5 0 18 -8 27 -14 16 -12 17 33 17 l48 0 -31
-27z m-1814 -132 c70 -38 127 -72 127 -76 0 -6 -186 -140 -227 -164 -11 -6
-293 127 -293 138 0 10 245 177 255 174 5 -2 68 -34 138 -72z m390 40 c-5 -23
4 -30 103 -80 60 -30 106 -55 101 -55 -4 -1 -57 24 -119 55 -72 36 -119 54
-135 51 -12 -2 -23 -3 -23 -1 0 3 72 54 76 54 1 0 -1 -11 -3 -24z m911 -52
c86 -42 154 -79 151 -84 -2 -4 -50 -42 -105 -83 -116 -89 -84 -90 -305 16
l-149 73 99 76 c64 49 109 77 126 77 15 1 97 -33 183 -75z m412 47 c0 -13 -8
-18 -28 -19 l-29 -1 23 19 c29 24 34 24 34 1z m574 6 c0 -2 -10 -12 -22 -23
l-23 -19 19 23 c18 21 26 27 26 19z m-1320 -31 c0 -2 -8 -10 -17 -17 -16 -13
-17 -12 -4 4 13 16 21 21 21 13z m1260 -20 c-15 -14 -498 -403 -1052 -848
-167 -133 -298 -245 -301 -257 -3 -13 3 -31 16 -48 l22 -28 -29 19 c-27 17
-85 24 -104 12 -6 -3 -8 2 -5 14 3 11 0 27 -8 36 -11 13 -9 14 14 3 37 -17 52
-9 201 111 81 66 126 109 126 121 0 11 -14 28 -32 39 -37 23 -26 27 12 5 52
-30 78 -20 198 76 77 61 112 96 110 107 -2 10 -60 47 -153 95 -121 62 -157 76
-187 74 -21 -1 -38 -2 -38 -1 0 0 18 16 41 34 32 25 40 28 35 14 -3 -11 -2
-24 2 -31 4 -6 77 -45 162 -88 116 -57 161 -75 179 -70 22 6 244 174 264 200
4 5 6 19 4 31 -3 17 2 20 29 20 25 0 56 20 154 98 67 54 125 106 127 116 3 10
17 20 31 24 15 3 63 34 107 70 75 62 107 84 75 52z m-1713 -84 l152 -77 -130
-94 -130 -93 -154 78 c-85 44 -155 82 -155 86 0 9 242 178 254 177 6 0 79 -35
163 -77z m385 50 c-33 -27 -40 -50 -22 -68 6 -6 -4 -8 -30 -6 -37 4 -49 -2
-148 -77 -135 -100 -147 -113 -133 -139 10 -19 8 -20 -27 -15 -33 4 -46 -1
-117 -53 -44 -31 -99 -71 -122 -88 -44 -31 -55 -60 -30 -85 10 -10 7 -10 -16
-2 -16 6 -34 11 -41 11 -7 0 -73 -45 -147 -101 -106 -79 -134 -105 -132 -123
1 -18 -4 -22 -31 -22 -25 0 -58 -20 -154 -93 -130 -100 -144 -122 -99 -155 21
-16 20 -16 -10 -1 -42 20 -61 19 -103 -5 -43 -25 -29 -13 93 83 97 75 107 97
56 125 -56 31 -65 43 -12 17 82 -40 94 -36 227 68 139 108 149 119 121 146
-24 22 -314 171 -335 171 -10 0 -8 4 5 13 15 12 21 11 35 -3 18 -18 290 -160
328 -172 35 -10 54 0 190 101 138 102 146 118 82 151 -22 11 -40 23 -40 25 0
3 22 -6 50 -20 77 -39 61 -46 268 107 93 69 106 90 75 114 -16 12 -14 12 13 3
40 -13 62 -4 154 64 80 60 106 74 52 29z m944 -36 c74 -36 134 -68 134 -73 -1
-14 -222 -183 -240 -183 -27 0 -292 129 -288 140 6 19 222 180 241 180 11 0
80 -29 153 -64z m-1626 20 c0 -2 -10 -10 -23 -19 -21 -13 -23 -13 -23 4 0 13
7 19 23 19 13 0 23 -2 23 -4z m1330 -10 c0 -1 -14 -13 -31 -25 -18 -14 -29
-18 -27 -10 3 8 2 21 -3 29 -6 13 -1 15 27 12 19 -2 34 -5 34 -6z m-1730 -181
c0 -3 -49 20 -110 50 -60 30 -110 57 -110 60 0 3 50 -20 110 -50 61 -30 110
-57 110 -60z m1200 24 c94 -46 159 -84 154 -89 -43 -41 -221 -170 -236 -170
-26 0 -340 159 -336 170 6 17 220 170 238 170 10 0 91 -36 180 -81z m-1329 0
l137 -72 -26 -22 c-72 -59 -232 -175 -242 -175 -5 0 -76 34 -155 76 l-146 76
73 51 c40 28 100 70 133 94 33 23 66 43 74 43 7 0 76 -32 152 -71z m372 37
c-4 -21 6 -29 106 -80 61 -31 111 -59 111 -61 0 -3 -54 22 -120 55 -66 33
-128 60 -137 60 -14 1 -11 6 12 25 17 14 31 25 31 25 1 0 -1 -11 -3 -24z
m1352 4 c-4 -12 -2 -26 3 -33 8 -9 -1 -12 -34 -12 l-44 0 37 32 c45 38 46 39
38 13z m-1234 -137 c82 -43 147 -82 146 -88 -6 -19 -230 -175 -251 -175 -21 0
-317 151 -319 163 -3 11 237 176 257 177 10 0 86 -35 167 -77z m-300 34 c-6
-6 -18 -1 -32 12 l-22 20 31 -11 c19 -7 28 -16 23 -21z m1658 -37 c122 -60
142 -73 130 -84 -58 -54 -225 -176 -242 -176 -27 0 -298 131 -295 142 5 15
233 188 248 188 8 0 80 -32 159 -70z m-292 18 c-40 -34 -42 -34 -42 0 0 25 3
27 37 27 l37 0 -32 -27z m-543 -149 c91 -45 166 -85 166 -89 0 -15 -213 -170
-234 -170 -24 -1 -347 161 -343 172 4 12 220 168 233 168 7 0 87 -37 178 -81z
m-1365 -10 c75 -39 139 -74 144 -78 8 -7 -224 -181 -241 -181 -22 0 -303 153
-295 161 20 19 238 169 247 169 5 0 70 -32 145 -71z m211 -72 c-4 -5 -23 2
-42 15 -20 13 -44 28 -54 35 -11 7 9 0 43 -15 33 -15 58 -31 53 -35z m304 -30
c77 -40 141 -76 142 -82 3 -11 -208 -175 -235 -182 -17 -4 -331 153 -331 165
2 16 237 171 260 171 14 0 88 -32 164 -72z m1116 48 c0 -1 -15 -14 -34 -29
-31 -23 -33 -24 -29 -6 3 11 1 26 -5 33 -8 10 -2 12 29 9 21 -2 39 -5 39 -7z
m249 -55 c77 -38 141 -73 141 -77 -1 -10 -182 -151 -206 -160 -16 -6 -315 134
-313 147 1 11 205 160 220 160 9 0 80 -31 158 -70z m-824 -107 c96 -48 175
-91 175 -95 0 -8 -235 -188 -245 -188 -15 0 -355 176 -352 182 1 6 235 184
244 187 2 1 82 -38 178 -86z m-1285 -18 c0 -3 -36 13 -80 35 -44 22 -80 42
-80 45 0 3 36 -13 80 -35 44 -22 80 -42 80 -45z m-84 1 c76 -41 137 -78 135
-83 -5 -12 -233 -173 -245 -173 -6 0 -78 36 -160 79 l-148 78 123 87 c68 47
131 86 140 86 8 0 78 -33 155 -74z m1787 44 c-3 -12 2 -29 13 -42 19 -21 19
-21 -5 -8 -13 6 -38 10 -57 8 -18 -2 -32 -2 -30 -1 5 5 81 62 83 63 0 0 -1 -9
-4 -20z m-1413 -25 c0 -9 40 -35 100 -65 55 -28 100 -52 100 -55 0 -3 -45 17
-100 45 -55 27 -112 50 -126 50 -16 0 -59 -23 -108 -57 -44 -31 -75 -49 -67
-40 19 24 8 43 -39 67 -22 11 -40 23 -40 25 0 3 22 -6 50 -20 27 -14 60 -25
72 -25 13 0 50 20 83 45 66 49 75 52 75 30z m1539 -119 l144 -73 -126 -101
c-74 -60 -135 -102 -148 -102 -26 0 -300 142 -296 153 6 18 243 196 262 196
11 0 85 -33 164 -73z m-1398 -13 c82 -43 149 -80 149 -83 -1 -14 -232 -180
-250 -180 -23 0 -319 150 -320 162 0 13 234 177 254 177 10 1 86 -34 167 -76z
m1374 67 c3 -6 -1 -7 -9 -4 -18 7 -21 14 -7 14 6 0 13 -4 16 -10z m-245 -6 c0
-1 -15 -13 -32 -26 l-33 -25 0 26 c0 23 4 26 33 26 17 0 32 -1 32 -1z m285
-14 c3 -6 -1 -7 -9 -4 -18 7 -21 14 -7 14 6 0 13 -4 16 -10z m40 -20 c3 -6 -1
-7 -9 -4 -18 7 -21 14 -7 14 6 0 13 -4 16 -10z m40 -20 c3 -6 -1 -7 -9 -4 -18
7 -21 14 -7 14 6 0 13 -4 16 -10z m-1855 -14 c0 -3 -15 -14 -32 -26 l-33 -22
30 26 c31 27 35 29 35 22z m-489 -102 c79 -42 147 -79 152 -83 6 -6 -190 -158
-250 -194 -14 -9 -314 152 -310 166 3 9 248 186 258 187 4 0 71 -34 150 -76z
m1403 -7 c87 -45 158 -86 158 -90 -2 -15 -227 -187 -246 -187 -17 0 -286 141
-330 173 -18 13 -12 20 95 100 72 55 123 87 139 87 14 0 96 -37 184 -83z
m-998 44 c-11 -12 -15 -27 -12 -39 5 -16 2 -18 -24 -14 -18 3 -41 -3 -58 -13
-41 -27 -14 -1 48 44 62 45 71 49 46 22z m1377 -35 c-4 -19 1 -28 26 -40 17
-9 31 -19 31 -22 0 -2 -14 3 -31 11 -42 22 -85 22 -109 0 -11 -10 -20 -15 -20
-12 0 4 91 79 106 86 1 1 -1 -10 -3 -23z m-1249 -133 c80 -43 146 -81 146 -84
0 -12 -227 -179 -245 -179 -21 0 -325 162 -322 172 1 4 54 46 117 93 82 60
121 83 136 80 12 -3 87 -40 168 -82z m1136 61 c0 -1 -26 -21 -57 -44 -36 -27
-49 -33 -35 -17 15 16 22 32 18 44 -5 15 0 18 34 18 22 0 40 -1 40 -1z m241
-69 l150 -76 -111 -92 c-62 -51 -122 -96 -135 -101 -18 -7 -50 5 -174 70 -83
43 -150 82 -149 86 6 13 241 188 254 188 8 0 82 -34 165 -75z m64 7 c-3 -3
-11 0 -18 7 -9 10 -8 11 6 5 10 -3 15 -9 12 -12z m40 -20 c-3 -3 -11 0 -18 7
-9 10 -8 11 6 5 10 -3 15 -9 12 -12z m-1236 -29 c17 8 31 14 31 12 0 -1 -25
-22 -56 -45 -44 -33 -53 -37 -43 -19 11 21 9 26 -22 52 l-34 29 46 -23 c44
-20 48 -21 78 -6z m311 -70 c88 -46 160 -88 160 -92 0 -15 -223 -181 -244
-181 -18 0 -333 163 -352 182 -3 4 49 48 116 98 89 66 127 89 141 85 11 -4 91
-45 179 -92z m965 79 c-3 -3 -11 0 -18 7 -9 10 -8 11 6 5 10 -3 15 -9 12 -12z
m-2376 -76 l152 -84 -161 -117 c-89 -64 -169 -117 -178 -118 -12 0 -280 144
-309 167 -5 4 322 236 333 236 5 0 79 -38 163 -84z m1776 2 c-9 -23 9 -36 166
-117 150 -78 202 -94 225 -71 6 6 10 0 9 -17 0 -22 10 -34 46 -58 84 -55 85
-56 8 -15 -84 44 -113 49 -142 23 -19 -18 -20 -17 -8 5 7 13 10 30 7 38 -7 18
-319 174 -349 174 -13 0 -27 -3 -33 -7 -5 -5 7 6 26 24 37 34 52 41 45 21z
m852 -104 c84 -48 153 -92 153 -99 0 -18 -218 -195 -241 -195 -27 0 -341 179
-333 191 16 26 228 189 246 189 12 0 90 -39 175 -86z m-2098 -15 c84 -45 151
-85 149 -90 -5 -15 -432 -330 -455 -335 -16 -4 -65 19 -177 83 -86 48 -155 91
-153 95 4 16 451 328 467 328 10 0 86 -37 169 -81z m1371 -24 c83 -41 150 -79
150 -83 0 -15 -223 -186 -240 -185 -25 2 -301 154 -298 164 4 12 218 179 229
179 5 0 77 -34 159 -75z m780 49 c0 -2 -9 0 -20 6 -11 6 -20 13 -20 16 0 2 9
0 20 -6 11 -6 20 -13 20 -16z m90 -50 c0 -2 -9 0 -20 6 -11 6 -20 13 -20 16 0
2 9 0 20 -6 11 -6 20 -13 20 -16z m-2620 12 c0 -3 -15 -14 -32 -26 l-33 -22
30 26 c31 27 35 29 35 22z m-70 -50 c0 -3 -15 -14 -32 -26 l-33 -22 30 26 c31
27 35 29 35 22z m-70 -50 c0 -2 -8 -10 -17 -17 -16 -13 -17 -12 -4 4 13 16 21
21 21 13z m2050 -39 c0 -2 -10 -12 -22 -23 l-23 -19 19 23 c18 21 26 27 26 19z
m246 -88 c90 -50 166 -95 169 -99 6 -10 -233 -210 -252 -210 -14 0 -273 153
-326 192 -17 12 -7 22 104 111 67 53 126 97 131 97 5 0 83 -41 174 -91z
m-2366 77 c0 -2 -8 -10 -17 -17 -16 -13 -17 -12 -4 4 13 16 21 21 21 13z
m1716 -90 c77 -42 149 -76 159 -76 9 0 47 23 84 51 l66 51 -59 -54 c-49 -45
-58 -57 -51 -77 5 -18 3 -22 -12 -21 -46 5 -66 -4 -147 -71 -47 -39 -86 -68
-86 -65 0 2 34 32 75 66 77 63 99 100 74 125 -8 7 -69 43 -136 80 -68 37 -123
69 -123 72 0 2 3 2 8 0 4 -2 70 -39 148 -81z m354 61 c0 -2 -10 -12 -22 -23
l-23 -19 19 23 c18 21 26 27 26 19z m-406 -79 c72 -39 133 -73 135 -74 2 -2
-4 -13 -15 -25 -20 -23 -558 -460 -609 -495 -59 -41 -64 -40 -217 46 -78 45
-145 83 -147 86 -10 10 59 68 334 278 346 265 333 256 364 256 14 0 83 -32
155 -72z m786 27 c0 -3 -18 4 -40 15 -22 11 -40 23 -40 25 0 3 18 -4 40 -15
22 -11 40 -23 40 -25z m70 -41 c0 -2 -13 2 -30 11 -16 9 -30 18 -30 21 0 2 14
-2 30 -11 17 -9 30 -18 30 -21z m-504 -190 c60 -37 128 -79 152 -93 23 -14 42
-33 41 -41 0 -8 -28 -37 -61 -65 -179 -146 -180 -147 -207 -140 -29 7 -281
148 -315 176 l-21 18 25 25 c68 68 227 185 251 186 15 0 73 -29 135 -66z
m-356 -48 c0 -2 -8 -10 -17 -17 -16 -13 -17 -12 -4 4 13 16 21 21 21 13z m64
-255 c92 -53 168 -100 168 -104 -1 -9 -319 -277 -329 -277 -16 0 -364 203
-361 211 6 17 323 269 338 268 8 0 91 -44 184 -98z"/>
<path d="M9100 4767 c-19 -7 -42 -17 -51 -23 -10 -5 -315 -258 -679 -563 -670
-560 -690 -579 -690 -641 0 -34 37 -97 73 -124 53 -40 774 -386 841 -403 82
-21 186 -14 254 18 38 18 214 169 659 569 334 300 627 564 650 587 37 36 43
48 43 83 0 23 -7 54 -15 70 -30 58 -68 78 -590 315 l-260 118 -100 4 c-67 2
-112 -1 -135 -10z m223 -31 c25 -7 207 -87 404 -177 287 -132 366 -172 400
-205 57 -54 58 -89 6 -144 -106 -109 -1263 -1135 -1299 -1151 -57 -26 -139
-33 -209 -19 -60 12 -746 334 -829 389 -77 51 -99 115 -59 169 11 15 314 273
674 574 436 365 667 553 694 562 52 19 160 20 218 2z"/>
<path d="M4775 3275 c-59 -30 -566 -416 -577 -440 -8 -18 -8 -28 1 -39 23 -27
343 -199 370 -198 14 0 37 5 51 11 42 16 564 424 576 450 7 13 10 30 7 36 -7
19 -347 195 -375 195 -12 0 -36 -7 -53 -15z m231 -101 c90 -48 164 -92 164
-99 0 -11 -511 -409 -557 -433 -12 -7 -31 -12 -42 -12 -19 0 -312 158 -335
180 -5 6 -3 16 5 26 17 22 505 386 545 408 16 8 35 15 42 16 7 0 87 -39 178
-86z"/>
</g>
</svg>
